<svg xmlns="http://www.w3.org/2000/svg" viewBox="0 0 128 128">
  <defs>
    <linearGradient id="bg" x1="0" x2="1" y1="0" y2="1">
      <stop offset="0%" stop-color="#0f172a" />
      <stop offset="100%" stop-color="#08111f" />
    </linearGradient>
  </defs>
  <rect width="128" height="128" rx="28" fill="url(#bg)" />
  <rect x="14" y="14" width="100" height="100" rx="22" fill="none" stroke="#7FB3C8" stroke-opacity="0.65" stroke-width="4" />
  <path d="M33 64c0-18 13-31 31-31 9 0 17 3 23 9l-10 10c-4-4-8-6-13-6-10 0-18 8-18 18s8 18 18 18c5 0 9-2 13-6l10 10c-6 6-14 9-23 9-18 0-31-13-31-31Z" fill="#D7C2AD" />
  <circle cx="95" cy="33" r="8" fill="#8B6A4A" />
</svg>
